<?xml version="1.0" encoding="UTF-8"?>
<svg width="800" height="1000" xmlns="http://www.w3.org/2000/svg">
  <defs>
    <marker id="arrowhead" markerWidth="10" markerHeight="7" refX="9" refY="3.5" orient="auto">
      <polygon points="0 0, 10 3.5, 0 7" fill="#333"/>
    </marker>
  </defs>
  
  <!-- 标题 -->
  <text x="400" y="40" text-anchor="middle" font-size="24" font-weight="bold">地图渲染流程</text>
  
  <!-- 初始化阶段 -->
  <rect x="50" y="80" width="200" height="60" rx="10" fill="#e6f3ff" stroke="#333"/>
  <text x="150" y="115" text-anchor="middle">组件初始化</text>
  
  <!-- 数据加载阶段 -->
  <rect x="50" y="200" width="200" height="60" rx="10" fill="#fff0f0" stroke="#333"/>
  <text x="150" y="235" text-anchor="middle">加载world.json地图数据</text>
  
  <!-- 数据注册阶段 -->
  <rect x="50" y="320" width="200" height="60" rx="10" fill="#fff0f0" stroke="#333"/>
  <text x="150" y="355" text-anchor="middle">注册世界地图到ECharts</text>
  
  <!-- 配置处理阶段 -->
  <rect x="350" y="200" width="200" height="60" rx="10" fill="#f0fff0" stroke="#333"/>
  <text x="450" y="235" text-anchor="middle">处理图表配置</text>
  
  <!-- 主题应用阶段 -->
  <rect x="350" y="320" width="200" height="60" rx="10" fill="#f0fff0" stroke="#333"/>
  <text x="450" y="355" text-anchor="middle">应用主题配置</text>
  
  <!-- 事件监听阶段 -->
  <rect x="350" y="440" width="200" height="60" rx="10" fill="#f0f0ff" stroke="#333"/>
  <text x="450" y="475" text-anchor="middle">绑定事件监听器</text>
  
  <!-- 渲染阶段 -->
  <rect x="200" y="560" width="200" height="60" rx="10" fill="#fffff0" stroke="#333"/>
  <text x="300" y="595" text-anchor="middle">渲染地图图表</text>
  
  <!-- 连接线 -->
  <line x1="150" y1="140" x2="150" y2="200" stroke="#333" marker-end="url(#arrowhead)"/>
  <line x1="150" y1="260" x2="150" y2="320" stroke="#333" marker-end="url(#arrowhead)"/>
  <line x1="250" y1="230" x2="350" y2="230" stroke="#333" marker-end="url(#arrowhead)"/>
  <line x1="450" y1="260" x2="450" y2="320" stroke="#333" marker-end="url(#arrowhead)"/>
  <line x1="450" y1="380" x2="450" y2="440" stroke="#333" marker-end="url(#arrowhead)"/>
  <line x1="350" y1="470" x2="300" y2="560" stroke="#333" marker-end="url(#arrowhead)"/>
  <line x1="250" y1="350" x2="300" y2="560" stroke="#333" marker-end="url(#arrowhead)"/>
  
  <!-- 注释说明 -->
  <g transform="translate(550, 80)">
    <text x="0" y="0" font-size="14" font-weight="bold">主要流程说明：</text>
    <text x="0" y="30">1. 组件初始化时检查主题设置</text>
    <text x="0" y="60">2. 异步加载world.json地图数据</text>
    <text x="0" y="90">3. 使用echarts.registerMap注册地图</text>
    <text x="0" y="120">4. 处理用户配置和数据集</text>
    <text x="0" y="150">5. 应用当前主题样式</text>
    <text x="0" y="180">6. 设置点击等交互事件</text>
    <text x="0" y="210">7. 最终渲染地图到DOM</text>
  </g>
</svg>